<svg version="1.1" id="Layer_1" xmlns="http://www.w3.org/2000/svg" xmlns:xlink="http://www.w3.org/1999/xlink" x="0px" y="0px"
	 width="100%" viewBox="0 0 1024 1024" enable-background="new 0 0 1024 1024" xml:space="preserve">
<path fill="#000000" opacity="1.000000" stroke="none" 
	d="
M716.431885,912.427551 
	C712.253845,918.983521 705.365479,921.929688 700.168457,926.800598 
	C699.926819,927.027039 699.546204,927.145935 699.383057,927.409485 
	C692.121338,939.140442 680.171936,936.424011 669.957275,935.580200 
	C644.864685,933.507507 619.943970,931.826172 594.842407,935.615967 
	C575.641602,938.514893 556.305725,937.517517 537.049927,935.357910 
	C533.545044,934.964783 530.551880,933.556580 527.403992,931.794739 
	C520.995422,928.207764 513.824341,926.333557 506.385223,926.185181 
	C502.538879,926.108521 498.808197,925.933960 495.058899,924.763916 
	C490.875732,923.458435 486.506012,923.657837 482.224609,924.771362 
	C480.615570,925.189819 478.951813,926.025513 477.385376,925.881958 
	C463.688263,924.626160 450.248077,928.753906 436.635315,927.886841 
	C424.627930,927.122070 413.588135,922.785461 403.527863,916.290527 
	C398.135284,912.809021 392.433014,911.024719 386.120911,911.035217 
	C379.303772,911.046509 372.464233,910.699036 365.729980,912.289062 
	C359.424164,913.777893 353.061157,912.909058 346.852264,911.911804 
	C335.192993,910.039429 323.031342,911.370300 311.792053,907.374329 
	C298.472595,902.638733 285.550140,896.790894 275.228882,886.675842 
	C269.808197,881.363586 263.436554,877.489868 257.071075,873.551392 
	C256.509277,873.203796 255.866364,872.750793 255.259277,872.747986 
	C243.506866,872.693359 231.891129,869.197571 220.091904,871.106201 
	C215.385956,871.867432 211.233765,871.773621 207.570709,868.267883 
	C203.482010,864.354736 197.660675,864.677490 192.781281,862.598572 
	C186.613190,859.970703 180.861420,856.695862 175.147888,853.283447 
	C172.163315,851.500977 171.330841,848.403870 170.315887,845.386658 
	C167.509949,837.044861 164.488861,828.811707 157.380005,822.944397 
	C156.248154,822.010254 156.064926,820.693115 155.885635,819.358582 
	C154.525681,809.235962 154.317444,799.111328 156.224777,789.042847 
	C157.308380,783.322693 156.623749,777.396973 158.464798,771.750366 
	C158.803223,770.712402 158.068954,769.116211 157.431152,768.006836 
	C155.355392,764.396179 155.405273,760.426270 154.786484,756.479919 
	C153.347351,747.301880 150.752090,738.388306 144.572769,731.053894 
	C137.840057,723.062622 134.098404,714.069031 135.428391,703.488342 
	C135.855835,700.087830 135.181381,696.848328 134.958038,693.544434 
	C134.222321,682.660767 135.420135,671.913696 137.132828,661.208191 
	C138.381378,653.404053 138.097672,645.595398 137.438110,637.788391 
	C137.207199,635.054993 137.636841,632.439026 138.302414,629.885071 
	C141.382797,618.064941 141.203659,606.112976 139.623917,594.170044 
	C137.609451,578.940552 140.106796,563.915283 141.484787,548.872498 
	C142.153870,541.568481 147.478546,535.559937 149.123642,528.343323 
	C150.047348,524.291321 151.118210,520.244446 152.508423,516.332336 
	C156.710388,504.507874 155.958557,492.401733 154.813812,480.273956 
	C153.401199,465.308105 153.182953,450.307953 155.128799,435.429871 
	C156.927643,421.675720 156.701675,407.836060 157.969101,394.076447 
	C159.052277,382.317322 159.538162,370.521149 162.896576,359.030243 
	C166.138382,347.938324 172.211853,338.459534 179.143005,329.605865 
	C186.804047,319.819885 192.457840,309.290680 191.803085,296.791901 
	C190.807983,277.795776 197.958755,260.961365 204.136017,243.786163 
	C206.108521,238.301819 210.751221,235.018661 215.079468,231.741898 
	C226.500992,223.095108 238.018417,214.615891 247.751175,203.970566 
	C249.622498,201.923782 252.159378,200.414337 254.562393,198.938995 
	C260.256195,195.443268 265.384583,191.394363 270.168060,186.637726 
	C276.553741,180.287872 284.679169,176.074219 292.412354,171.560989 
	C298.219910,168.171585 303.334320,163.964142 308.532410,159.860153 
	C319.993805,150.811203 332.427734,147.409424 346.335358,152.969147 
	C358.136383,157.686737 370.570343,160.237167 382.589264,164.199936 
	C390.137909,166.688828 397.188477,164.024673 404.263702,160.946350 
	C416.298340,155.710297 424.665680,146.508804 433.005219,136.917816 
	C439.830933,129.067825 448.329224,123.274101 458.011780,119.087830 
	C468.790619,114.427620 477.853027,118.977501 486.977844,123.548103 
	C498.502014,129.320541 510.724396,131.484741 523.293701,129.459290 
	C532.985718,127.897453 542.675476,126.266090 552.379700,124.741669 
	C569.456482,122.059135 585.678040,123.802818 602.398926,129.377060 
	C617.402405,134.378784 632.358032,140.586945 648.464294,142.163696 
	C653.873413,142.693222 657.567322,146.901337 661.503784,150.100998 
	C670.860168,157.706100 680.961182,163.433319 693.111267,165.058960 
	C698.335754,165.757965 702.442993,169.363754 707.413452,170.859314 
	C712.264404,172.318909 717.022217,173.383484 722.126282,172.328033 
	C730.010498,170.697693 737.341003,172.536774 744.253845,176.376999 
	C756.313293,183.076355 769.773132,185.897308 782.724243,190.069504 
	C787.619141,191.646423 792.105530,193.430939 795.662170,197.144196 
	C806.751831,208.722275 819.548889,217.674637 834.640381,223.368576 
	C843.494629,226.709213 846.662964,235.173798 849.941467,242.858643 
	C854.179260,252.792130 856.526184,263.558441 861.037720,273.343536 
	C870.411133,293.673492 874.683960,315.792908 883.907349,336.142822 
	C885.844910,340.417847 888.442444,344.219879 892.231079,346.505646 
	C900.668701,351.596191 902.680969,359.498291 902.872253,368.289459 
	C903.082153,377.934479 903.621399,387.582825 902.145935,397.224426 
	C900.261108,409.541290 902.610901,421.771027 903.485046,434.025940 
	C903.638367,436.175659 904.294983,438.575500 903.604736,440.449341 
	C900.770142,448.145294 902.148438,455.304871 905.033386,462.631622 
	C906.762390,467.022552 906.644836,471.964142 905.652100,476.481964 
	C902.540466,490.642761 902.969177,504.969330 903.037537,519.280518 
	C903.107605,533.961060 901.475708,548.523071 900.631042,563.133118 
	C899.789673,577.686218 898.127319,592.264771 899.553467,607.008057 
	C900.732727,619.198669 899.347961,631.554443 900.896484,643.850891 
	C902.036865,652.905762 902.900513,662.034729 903.135986,671.215454 
	C903.548035,687.274292 901.502502,702.625977 894.250793,717.300903 
	C887.460144,731.042725 883.584534,746.012512 877.770569,760.187256 
	C870.880676,776.984863 863.389465,793.466309 852.003296,807.867065 
	C849.539001,810.983765 847.333435,814.426819 845.653625,818.020996 
	C838.412964,833.513672 825.695068,843.832397 812.508484,853.755005 
	C811.712341,854.354187 810.697937,854.740845 810.066895,855.470276 
	C800.825195,866.153015 787.939270,869.061707 775.031982,871.789001 
	C772.308777,872.364441 770.136169,873.481750 767.899109,875.023315 
	C759.980652,880.480286 751.553467,885.074829 742.562988,888.505981 
	C740.266724,889.382263 738.823303,890.760071 737.132568,892.440308 
	C732.872253,896.674194 729.254395,901.567261 723.771729,904.660095 
	C720.902527,906.278687 718.993164,909.598572 716.431885,912.427551 
M598.586609,660.914307 
	C621.714722,683.975586 644.836731,707.043030 667.985901,730.083130 
	C669.396301,731.486816 670.947937,732.776306 672.560547,733.944031 
	C679.247559,738.786377 686.511292,739.410095 693.774231,735.774414 
	C701.308044,732.003052 704.605164,725.404358 704.897583,717.039795 
	C705.194336,708.552002 699.923218,703.160461 694.556946,697.905212 
	C681.580566,685.197144 668.264832,672.832397 655.400146,660.013855 
	C600.626526,605.436523 545.974426,550.737122 491.263550,496.096680 
	C451.296814,456.181335 411.352936,416.242889 371.285461,376.428833 
	C364.329956,369.517303 358.211517,361.623993 349.928436,356.186584 
	C337.981201,348.343872 322.326691,354.568024 318.291443,368.236145 
	C315.396332,378.042450 319.841309,385.063995 326.410431,391.304718 
	C342.233612,406.336700 357.719482,421.708191 373.220215,437.069977 
	C399.137726,462.755188 425.377960,488.115204 451.249969,513.845764 
	C500.284607,562.612427 549.154663,611.544434 598.586609,660.914307 
M617.810608,432.339478 
	C612.302307,449.209686 608.930115,466.379639 609.193054,484.264435 
	C609.506348,505.578339 609.356201,526.901306 609.176086,548.218384 
	C609.140991,552.377869 610.310425,555.588623 613.197998,558.468994 
	C621.685547,566.935669 630.096558,575.479309 638.501282,584.028564 
	C640.321228,585.879822 642.212158,587.732605 643.188538,590.643860 
	C642.028076,590.819031 641.246277,591.008118 640.458069,591.040710 
	C638.957092,591.102722 637.263977,590.888489 636.747009,592.770142 
	C636.299255,594.399902 637.238281,595.727234 638.421509,596.691528 
	C640.792847,598.623962 643.631653,600.417908 646.597839,599.446167 
	C649.458313,598.509033 650.466125,595.598694 650.424255,592.505859 
	C650.395142,590.344971 650.624329,588.181580 650.625488,586.019165 
	C650.644592,550.876770 650.691345,515.734253 650.609558,480.592041 
	C650.594360,474.057037 651.189880,467.606384 652.746338,461.314636 
	C659.633484,433.475281 674.502930,411.914001 701.554077,400.116699 
	C710.801208,396.083923 720.672180,396.215729 730.472473,395.652985 
	C742.978882,394.934875 752.696960,381.427887 749.696716,369.271545 
	C747.166565,359.019745 738.038635,351.799988 727.124756,351.308075 
	C713.105591,350.676239 700.046875,354.553009 687.640381,360.439850 
	C655.750000,375.571564 631.973633,398.815735 617.810608,432.339478 
M413.229309,368.656036 
	C414.185364,367.989349 415.142670,367.324432 416.097290,366.655762 
	C451.006012,342.201721 490.003265,333.195038 532.015015,336.939758 
	C553.225403,338.830353 573.449646,345.060394 592.352417,355.035797 
	C596.468872,357.208191 598.551819,356.591309 600.263733,352.283813 
	C603.818237,343.339386 610.265198,336.689880 617.921021,331.077484 
	C623.979614,326.636078 623.967163,325.084167 617.334778,321.473724 
	C589.608459,306.380554 559.949890,297.319824 528.472412,295.518921 
	C486.116394,293.095551 446.148560,302.326569 408.960083,322.935699 
	C399.355774,328.258270 389.862671,333.803162 381.672852,341.274902 
	C379.456482,343.296967 378.704376,345.081787 381.279083,347.436279 
	C389.397522,354.860229 396.888489,362.897888 404.030548,371.256653 
	C405.648499,373.150208 407.164856,373.465881 409.086121,371.795837 
	C410.214752,370.814789 411.456329,369.963684 413.229309,368.656036 
M387.904449,663.406494 
	C400.460144,648.707520 408.650574,631.820557 413.551147,613.173584 
	C417.719696,597.312012 416.294037,581.127197 417.209869,565.058289 
	C417.800812,554.689819 414.924835,547.003113 406.910065,540.341675 
	C398.738342,533.549866 391.427307,525.723450 383.722260,518.368042 
	C382.538666,517.238159 381.371735,515.755249 379.439972,516.602112 
	C377.686157,517.370911 377.329163,519.051208 377.245422,520.776794 
	C377.188934,521.940369 377.188049,523.106812 377.168365,524.272034 
	C376.842041,543.578552 377.104919,562.884949 376.542786,582.198792 
	C376.038208,599.534607 371.449158,615.167053 361.787933,629.552734 
	C351.489227,644.887695 338.148956,655.835999 320.321014,661.427246 
	C312.144745,663.991577 303.776550,662.672913 295.598755,664.125671 
	C285.773438,665.871094 278.515808,673.149902 277.404846,682.695374 
	C276.187378,693.155945 282.037781,703.088623 291.302429,706.833008 
	C298.680115,709.814819 306.065826,708.704346 313.404938,707.216064 
	C342.981720,701.218384 367.582184,686.611755 387.904449,663.406494 
M697.448975,452.966370 
	C694.383850,454.919128 694.071045,457.550873 695.320068,460.753113 
	C697.253723,465.710419 699.257019,470.657684 700.844849,475.730011 
	C711.843201,510.865204 712.268738,546.444519 704.484558,582.177734 
	C700.102905,602.291382 692.301941,621.206482 681.846069,638.940796 
	C679.590637,642.766418 679.748291,645.183777 682.976379,648.320801 
	C689.657166,654.813110 695.865112,661.789307 702.357300,668.479309 
	C706.382080,672.626709 707.002502,672.550293 710.208740,667.997131 
	C736.398621,630.805054 748.476746,588.927734 750.539612,543.974365 
	C751.565002,521.630493 749.055054,499.481232 743.687744,477.698578 
	C740.125671,463.242188 735.108765,449.361755 727.803223,436.365997 
	C724.987488,431.357056 723.087952,431.102295 718.985291,434.836639 
	C712.214722,440.999481 705.327942,447.022491 697.448975,452.966370 
M391.834656,717.374146 
	C388.163513,722.245056 388.423889,724.493896 393.885315,728.384033 
	C419.514923,746.640076 448.516113,756.481140 479.211487,761.606567 
	C502.997833,765.578308 526.890503,765.726074 550.765381,761.693054 
	C574.258789,757.724548 596.683411,750.691040 617.544250,739.045288 
	C621.671082,736.741394 621.921509,734.571350 618.601379,731.178589 
	C611.262268,723.678650 603.745911,716.350952 596.464478,708.796265 
	C594.231628,706.479614 592.107910,706.320923 589.335266,707.448975 
	C584.101379,709.578613 578.837708,711.657227 573.498474,713.502380 
	C543.455994,723.884583 512.703125,726.171143 481.469513,720.706055 
	C458.948212,716.765381 437.796265,708.928345 418.667999,696.177979 
	C415.240631,693.893311 412.934692,694.111694 410.174957,697.304260 
	C404.406158,703.977661 398.263428,710.327942 391.834656,717.374146 
M277.352966,545.286621 
	C278.969055,571.494324 282.984833,597.121033 295.060883,621.729919 
	C301.972382,613.443787 309.430969,607.723389 318.455200,604.200134 
	C329.792145,599.773804 329.739319,599.810364 326.315094,587.754333 
	C318.287750,559.491699 316.944336,530.852661 321.389557,501.848175 
	C323.617859,487.308868 327.758331,473.335815 333.000977,459.650299 
	C334.901367,454.689484 335.333618,450.099487 331.101196,445.907532 
	C324.714325,439.581665 318.480133,433.100433 312.235016,426.633118 
	C309.295319,423.588837 306.777496,423.783508 304.712921,427.460236 
	C298.850891,437.899628 293.123535,448.402618 289.315216,459.827362 
	C280.168427,487.267487 276.853058,515.525818 277.352966,545.286621 
z"/>
</svg>